<svg width="32" height="32" viewBox="0 0 32 32" fill="none" xmlns="http://www.w3.org/2000/svg">
  <rect width="32" height="32" rx="6" fill="#C48240" />
  <path d="M11.5 8C10.1193 8 9 9.11929 9 10.5V19.5C9 20.8807 10.1193 22 11.5 22H12V24H14V22H18V24H20V22H20.5C21.8807 22 23 20.8807 23 19.5V10.5C23 9.11929 21.8807 8 20.5 8H11.5Z" fill="white"/>
  <path d="M21 11H11V20H21V11Z" fill="#C48240"/>
  <path d="M16 14C17.1046 14 18 13.1046 18 12C18 10.8954 17.1046 10 16 10C14.8954 10 14 10.8954 14 12C14 13.1046 14.8954 14 16 14Z" fill="white"/>
  <path d="M18 18C19.1046 18 20 17.1046 20 16C20 14.8954 19.1046 14 18 14C16.8954 14 16 14.8954 16 16C16 17.1046 16.8954 18 18 18Z" fill="white"/>
  <path d="M14 18C15.1046 18 16 17.1046 16 16C16 14.8954 15.1046 14 14 14C12.8954 14 12 14.8954 12 16C12 17.1046 12.8954 18 14 18Z" fill="white"/>
</svg> 